FFmpeg version SVN-r25716, Copyright (c) 2000-2010 the FFmpeg developers  built on Nov 10 2010 12:23:18 with gcc 4.1.2 20080704 (Red Hat 4.1.2-48)  configuration: --enable-libmp3lame --enable-shared --disable-mmx --arch=x86_64  libavutil     50.33. 0 / 50.33. 0  libavcore      0.12. 1 /  0.12. 1  libavcodec    52.94. 4 / 52.94. 4  libavformat   52.84. 0 / 52.84. 0  libavdevice   52. 2. 2 / 52. 2. 2  libavfilter    1.59. 0 /  1.59. 0  libswscale     0.12. 0 /  0.12. 0Input #0, avi, from '/RAID10/data/converted_video_files/47590.avi':  Duration: 00:00:09.70, start: 0.000000, bitrate: 188619 kb/s    Stream #0.0: Video: msvideo1, rgb555le, 1024x1024, 20 tbr, 20 tbn, 20 tbc[buffer @ 0x91ad440] w:1024 h:1024 pixfmt:rgb555le[ffsink @ 0x91cad50] auto-inserting filter 'auto-inserted scaler 0' between the filter 'src' and the filter 'out'[scale @ 0x91cb040] w:1024 h:1024 fmt:rgb555le -> w:1024 h:1024 fmt:yuv420p flags:0x4Output #0, flv, to '/RAID10/data/converted_video_files/47590.flv':  Metadata:    encoder         : Lavf52.84.0    Stream #0.0: Video: flv, yuv420p, 1024x1024, q=2-31, 600 kb/s, 1k tbn, 24 tbcStream mapping:  Stream #0.0 -> #0.0Press [q] to stop encodingframe=    5 fps=  0 q=9.4 size=     686kB time=0.25 bitrate=22558.0kbits/s    frame=   13 fps= 12 q=26.1 size=     791kB time=0.62 bitrate=10373.3kbits/s    frame=   24 fps= 14 q=31.0 size=     850kB time=1.17 bitrate=5963.4kbits/s    frame=   33 fps= 15 q=31.0 size=     889kB time=1.62 bitrate=4480.7kbits/s    frame=   39 fps= 14 q=31.0 size=     895kB time=1.96 bitrate=3742.4kbits/s    frame=   48 fps= 15 q=31.0 size=     932kB time=2.38 bitrate=3213.6kbits/s    frame=   57 fps= 15 q=31.0 size=     968kB time=2.83 bitrate=2796.8kbits/s    frame=   66 fps= 15 q=24.8 size=    1011kB time=3.29 bitrate=2514.8kbits/s    frame=   75 fps= 16 q=31.0 size=    1029kB time=3.75 bitrate=2246.9kbits/s    frame=   86 fps= 16 q=31.0 size=    1065kB time=4.29 bitrate=2033.6kbits/s    frame=   95 fps= 16 q=31.0 size=    1102kB time=4.75 bitrate=1901.1kbits/s    frame=  105 fps= 16 q=31.0 size=    1137kB time=5.25 bitrate=1773.7kbits/s    frame=  116 fps= 17 q=31.0 size=    1188kB time=5.79 bitrate=1680.6kbits/s    frame=  127 fps= 17 q=31.0 size=    1227kB time=6.33 bitrate=1587.3kbits/s    frame=  136 fps= 17 q=31.0 size=    1233kB time=6.79 bitrate=1487.0kbits/s    frame=  145 fps= 17 q=31.0 size=    1269kB time=7.25 bitrate=1434.2kbits/s    frame=  155 fps= 17 q=31.0 size=    1319kB time=7.75 bitrate=1394.8kbits/s    frame=  165 fps= 17 q=31.0 size=    1359kB time=8.25 bitrate=1349.7kbits/s    frame=  176 fps= 17 q=31.0 size=    1400kB time=8.79 bitrate=1304.3kbits/s    frame=  185 fps= 17 q=31.0 size=    1408kB time=9.25 bitrate=1247.3kbits/s    frame=  194 fps= 17 q=31.0 Lsize=    1442kB time=9.71 bitrate=1216.7kbits/s    video:1439kB audio:0kB global headers:0kB muxing overhead 0.224955%